<svg width="62" height="62" xmlns="http://www.w3.org/2000/svg" xmlns:xlink="http://www.w3.org/1999/xlink" xml:space="preserve" overflow="hidden"><g transform="translate(-742 -362)"><path d="M768.307 417.661 797.542 410.605 797.542 378.494 776.264 368.361 748.458 374.428 748.458 406.974ZM775.794 372.43 789.704 379.054 778.444 381.578 768.854 383.727 755.925 376.765ZM752.333 404.659 752.333 379.232 766.635 386.934 766.635 412.361ZM793.667 407.554 770.51 413.144 770.51 387.328 780.575 385.071 793.667 382.137Z" fill="#0B5F85"/><path d="M775.383 373.745 776.675 373.745 776.675 376.328 775.383 376.328Z" fill="#0B5F85"/><path d="M775.383 387.308 776.675 387.308 776.675 389.891 775.383 389.891Z" fill="#0B5F85"/><path d="M775.383 391.828 776.675 391.828 776.675 394.412 775.383 394.412Z" fill="#0B5F85"/><path d="M775.383 378.266 776.675 378.266 776.675 380.849 775.383 380.849Z" fill="#0B5F85"/><path d="M775.383 396.349 776.675 396.349 776.675 398.933 775.383 398.933Z" fill="#0B5F85"/><path d="M784.807 404.903 785.34 403.727 787.693 404.791 787.161 405.968Z" fill="#0B5F85"/><path d="M772.339 400.367 774.864 399.817 775.139 401.08 772.614 401.63Z" fill="#0B5F85"/><path d="M754.672 404.222 757.196 403.673 757.471 404.935 754.947 405.485Z" fill="#0B5F85"/><path d="M780.688 403.041 781.22 401.864 783.573 402.928 783.041 404.105Z" fill="#0B5F85"/><path d="M788.926 406.767 789.459 405.59 791.812 406.655 791.28 407.832Z" fill="#0B5F85"/><path d="M776.57 401.177 777.102 400 779.456 401.065 778.924 402.242Z" fill="#0B5F85"/><path d="M759.089 403.259 761.613 402.709 761.888 403.971 759.364 404.521Z" fill="#0B5F85"/><path d="M763.506 402.296 766.03 401.746 766.305 403.008 763.781 403.558Z" fill="#0B5F85"/></g></svg>