<svg width="62" height="63" xmlns="http://www.w3.org/2000/svg" xmlns:xlink="http://www.w3.org/1999/xlink" xml:space="preserve" overflow="hidden"><g transform="translate(-448 -362)"><path d="M506.957 385.91C506.917 385.331 506.496 384.85 505.927 384.733L499.098 383.339C498.673 383.251 498.233 383.383 497.927 383.691L496.547 385.07 487.376 375.899C487.266 377.778 486.251 379.487 484.655 380.484L492.894 388.723 491.561 390.056C491.259 390.359 491.126 390.792 491.206 391.212L492.527 398.112C492.638 398.689 493.123 399.119 493.71 399.158L500.559 399.615C500.588 399.615 500.617 399.618 500.646 399.618 501.36 399.641 501.957 399.082 501.98 398.368 502.004 397.655 501.444 397.058 500.731 397.035L494.876 396.647 493.872 391.4 499.262 386.009 504.446 387.065 504.837 392.932C504.885 393.644 505.501 394.183 506.213 394.135 506.925 394.088 507.464 393.472 507.417 392.76Z" fill="#0B5F85"/><path d="M475.733 394.899C475.733 392.823 475.14 390.791 474.022 389.041L469.465 394.485C467.107 397.312 462.904 397.692 460.077 395.334 457.251 392.976 456.871 388.773 459.229 385.946 459.486 385.639 459.77 385.355 460.077 385.098L460.245 384.957C456.351 386.734 453.853 390.62 453.851 394.899L453.851 407.208 475.733 407.208Z" fill="#0B5F85"/><path d="M475.771 375.562C475.771 375.169 475.811 374.777 475.89 374.392L461.319 386.584C459.318 388.26 459.055 391.242 460.732 393.243 462.408 395.245 465.39 395.508 467.391 393.831 467.604 393.653 467.801 393.456 467.979 393.243L478.605 380.544C476.85 379.497 475.774 377.606 475.771 375.562ZM466.034 390.356C465.529 390.86 464.711 390.861 464.207 390.356 463.702 389.852 463.702 389.034 464.207 388.53 464.711 388.025 465.529 388.025 466.033 388.529 466.033 388.529 466.034 388.529 466.034 388.53 466.538 389.034 466.538 389.852 466.034 390.356Z" fill="#0B5F85"/><path d="M475.771 409.792 453.812 409.792C452.386 409.792 451.229 410.948 451.229 412.375L451.229 414.958 478.354 414.958 478.354 412.375C478.354 410.948 477.198 409.792 475.771 409.792Z" fill="#0B5F85"/><path d="M481.583 371.688C479.443 371.688 477.708 373.422 477.708 375.562 477.708 377.703 479.443 379.438 481.583 379.438 483.723 379.438 485.458 377.703 485.458 375.562 485.458 373.422 483.723 371.688 481.583 371.688ZM481.583 376.531C481.048 376.531 480.615 376.098 480.615 375.562 480.615 375.027 481.048 374.594 481.583 374.594 482.118 374.594 482.552 375.027 482.552 375.562 482.552 376.098 482.118 376.531 481.583 376.531Z" fill="#0B5F85"/></g></svg>