<svg width="62" height="63" xmlns="http://www.w3.org/2000/svg" xmlns:xlink="http://www.w3.org/1999/xlink" xml:space="preserve" overflow="hidden"><g transform="translate(-155 -386)"><path d="M17.7384 41.1737 29.3913 41.1737 29.3913 43.7633 17.7384 43.7633Z" fill="#0B5F85" transform="matrix(0.921685 0.38794 -0.381782 0.93655 173.001 380.146)"/><path d="M38.1042 28.4167C38.1042 29.8434 36.9476 31 35.5208 31 34.0941 31 32.9375 29.8434 32.9375 28.4167 32.9375 26.9899 34.0941 25.8333 35.5208 25.8333 36.9476 25.8333 38.1042 26.9899 38.1042 28.4167Z" fill="#0B5F85" transform="matrix(1 0 0 1.01613 155 386)"/><path d="M38.1042 28.4167C38.1042 29.8434 36.9476 31 35.5208 31 34.0941 31 32.9375 29.8434 32.9375 28.4167 32.9375 26.9899 34.0941 25.8333 35.5208 25.8333 36.9476 25.8333 38.1042 26.9899 38.1042 28.4167Z" fill="#0B5F85" transform="matrix(1 0 0 1.01613 155 386)"/><path d="M36.8125 52.9583C41.5271 49.4062 44.5625 43.7875 44.5625 37.4583 44.5625 30.9354 41.2687 25.1229 36.2958 21.6354L41.5271 9.04167 39.7188 8.33125 41.1396 4.84375 37.5875 3.35833 36.1667 6.84583 34.3583 6.13542 23.4437 32.4208 23.4437 32.4208C22.9271 33.7125 23.1208 35.1979 23.9604 36.2312L23.25 37.9104 26.8021 39.3958 27.5125 37.7167C28.8687 37.5229 30.0312 36.6833 30.6125 35.3917L30.6125 35.3917 31.3229 33.5833 40.1708 33.5833C40.4937 34.8104 40.6875 36.1021 40.6875 37.4583 40.6875 45.9833 33.7125 52.9583 25.1875 52.9583L12.9167 52.9583 12.9167 56.8333 12.9167 58.125 49.0833 58.125 49.0833 56.8333 49.0833 52.9583 36.8125 52.9583ZM35.5208 32.2917C33.3896 32.2917 31.6458 30.5479 31.6458 28.4167 31.6458 26.2854 33.3896 24.5417 35.5208 24.5417 37.6521 24.5417 39.3958 26.2854 39.3958 28.4167 39.3958 30.5479 37.6521 32.2917 35.5208 32.2917Z" fill="#0B5F85" transform="matrix(1 0 0 1.01613 155 386)"/></g></svg>