<svg width="500" height="500" viewBox="0 0 500 500" xmlns="http://www.w3.org/2000/svg">
  <!-- Fundo com gradiente suave -->
  <defs>
    <linearGradient id="bg" x1="0%" y1="0%" x2="100%" y2="100%">
      <stop offset="0%" style="stop-color:#0A2F5B;stop-opacity:0.1"/>
      <stop offset="100%" style="stop-color:#6AABD2;stop-opacity:0.1"/>
    </linearGradient>
  </defs>
  
  <!-- Círculos decorativos de fundo -->
  <circle cx="250" cy="250" r="200" fill="url(#bg)" opacity="0.8"/>
  <circle cx="250" cy="250" r="150" stroke="#1E63A8" stroke-width="2" fill="none" opacity="0.5"/>
  
  <!-- Grade de pontos -->
  <g id="grid" opacity="0.3">
    <circle cx="150" cy="150" r="3" fill="#0A2F5B"/>
    <circle cx="200" cy="150" r="3" fill="#0A2F5B"/>
    <circle cx="250" cy="150" r="3" fill="#0A2F5B"/>
    <circle cx="300" cy="150" r="3" fill="#0A2F5B"/>
    <circle cx="350" cy="150" r="3" fill="#0A2F5B"/>
    
    <circle cx="150" cy="200" r="3" fill="#0A2F5B"/>
    <circle cx="200" cy="200" r="3" fill="#0A2F5B"/>
    <circle cx="250" cy="200" r="3" fill="#0A2F5B"/>
    <circle cx="300" cy="200" r="3" fill="#0A2F5B"/>
    <circle cx="350" cy="200" r="3" fill="#0A2F5B"/>
    
    <circle cx="150" cy="250" r="3" fill="#0A2F5B"/>
    <circle cx="200" cy="250" r="3" fill="#0A2F5B"/>
    <circle cx="250" cy="250" r="3" fill="#0A2F5B"/>
    <circle cx="300" cy="250" r="3" fill="#0A2F5B"/>
    <circle cx="350" cy="250" r="3" fill="#0A2F5B"/>
    
    <circle cx="150" cy="300" r="3" fill="#0A2F5B"/>
    <circle cx="200" cy="300" r="3" fill="#0A2F5B"/>
    <circle cx="250" cy="300" r="3" fill="#0A2F5B"/>
    <circle cx="300" cy="300" r="3" fill="#0A2F5B"/>
    <circle cx="350" cy="300" r="3" fill="#0A2F5B"/>
    
    <circle cx="150" cy="350" r="3" fill="#0A2F5B"/>
    <circle cx="200" cy="350" r="3" fill="#0A2F5B"/>
    <circle cx="250" cy="350" r="3" fill="#0A2F5B"/>
    <circle cx="300" cy="350" r="3" fill="#0A2F5B"/>
    <circle cx="350" cy="350" r="3" fill="#0A2F5B"/>
  </g>
  
  <!-- Elementos geométricos principais -->
  <g id="geometric-elements">
    <!-- Hexágono central -->
    <path d="M250 180 L310 210 L310 270 L250 300 L190 270 L190 210 Z" fill="none" stroke="#1E63A8" stroke-width="3"/>
    
    <!-- Linhas conectoras -->
    <line x1="250" y1="180" x2="250" y2="140" stroke="#6AABD2" stroke-width="2"/>
    <line x1="310" y1="210" x2="350" y2="210" stroke="#6AABD2" stroke-width="2"/>
    <line x1="310" y1="270" x2="350" y2="270" stroke="#6AABD2" stroke-width="2"/>
    <line x1="250" y1="300" x2="250" y2="340" stroke="#6AABD2" stroke-width="2"/>
    <line x1="190" y1="270" x2="150" y2="270" stroke="#6AABD2" stroke-width="2"/>
    <line x1="190" y1="210" x2="150" y2="210" stroke="#6AABD2" stroke-width="2"/>
    
    <!-- Círculos nas pontas -->
    <circle cx="250" cy="140" r="5" fill="#0A2F5B"/>
    <circle cx="350" cy="210" r="5" fill="#0A2F5B"/>
    <circle cx="350" cy="270" r="5" fill="#0A2F5B"/>
    <circle cx="250" cy="340" r="5" fill="#0A2F5B"/>
    <circle cx="150" cy="270" r="5" fill="#0A2F5B"/>
    <circle cx="150" cy="210" r="5" fill="#0A2F5B"/>
  </g>
  
  <!-- Pequenos detalhes flutuantes -->
  <g id="floating-details">
    <circle cx="200" cy="150" r="8" fill="none" stroke="#6AABD2" stroke-width="2"/>
    <circle cx="300" cy="350" r="8" fill="none" stroke="#6AABD2" stroke-width="2"/>
    <circle cx="150" cy="300" r="8" fill="none" stroke="#6AABD2" stroke-width="2"/>
    <circle cx="350" cy="180" r="8" fill="none" stroke="#6AABD2" stroke-width="2"/>
  </g>
</svg>