<svg width="62" height="62" xmlns="http://www.w3.org/2000/svg" xmlns:xlink="http://www.w3.org/1999/xlink" xml:space="preserve" overflow="hidden"><g transform="translate(-154 -362)"><path d="M197.917 402.946C197.917 402.235 198.498 401.654 199.208 401.654 199.919 401.654 200.5 402.235 200.5 402.946 200.5 403.656 199.919 404.237 199.208 404.237 198.498 404.237 197.917 403.656 197.917 402.946ZM208.25 402.946C208.25 402.235 208.831 401.654 209.542 401.654 210.252 401.654 210.833 402.235 210.833 402.946 210.833 403.656 210.252 404.237 209.542 404.237 208.831 404.237 208.25 403.656 208.25 402.946ZM205.667 402.946C205.667 403.656 205.085 404.237 204.375 404.237 203.665 404.237 203.083 403.656 203.083 402.946 203.083 402.235 203.665 401.654 204.375 401.654 205.085 401.654 205.667 402.235 205.667 402.946ZM156.583 406.885C156.583 408.306 157.746 409.469 159.167 409.469L161.104 409.469C161.104 410.89 162.267 412.052 163.688 412.052L168.854 412.052C170.275 412.052 171.438 410.89 171.438 409.469L197.917 409.469C197.917 410.89 199.079 412.052 200.5 412.052L205.667 412.052C207.087 412.052 208.25 410.89 208.25 409.469L210.833 409.469C212.254 409.469 213.417 408.306 213.417 406.885L213.417 399.135 163.235 399.135 210.381 377.629C211.35 377.177 211.802 376.015 211.35 375.046 210.898 374.077 209.735 373.625 208.767 374.077L157.746 397.327C157.035 397.65 156.583 398.36 156.583 399.071L156.583 406.885Z" fill="#0B5F85"/></g></svg>