<svg width="62" height="63" xmlns="http://www.w3.org/2000/svg" xmlns:xlink="http://www.w3.org/1999/xlink" xml:space="preserve" overflow="hidden"><g transform="translate(-449 -386)"><path d="M43.5938 40.8167C43.4215 40.8222 43.2568 40.8886 43.1287 41.004 40.6489 42.8566 38.291 44.8671 36.0698 47.0231 35.1785 47.9144 34.3713 48.7281 33.6285 49.5419 32.816 48.0078 32.3904 46.2985 32.3885 44.5625 32.2769 38.9682 36.7207 34.3422 42.315 34.2292 47.5269 34.3648 55.7935 31.9946 55.7935 31.9946 55.7935 41.0879 54.8377 49.1867 47.2427 53.5848 45.7563 54.4826 44.0515 54.9541 42.315 54.9475 39.9297 54.9536 37.6275 54.0719 35.8567 52.474 33.9773 54.5729 32.7115 56.349 32.7115 57.1692L30.619 57.1692C30.619 55.9162 31.6652 54.1402 33.2798 52.1769 33.4606 51.9573 33.8481 51.531 33.8481 51.531L44.3365 41.5852C44.358 41.1827 44.0491 40.839 43.6466 40.8176 43.629 40.8166 43.6114 40.8163 43.5938 40.8167Z" fill="#0B5F85" transform="matrix(1 0 0 1.01613 449 386)"/><path d="M11.089 46.1319C11.5762 47.071 12.5088 47.6967 13.5625 47.7917L25.1875 47.7917 25.1875 52.9583 13.5625 52.9583C10.6176 52.9048 7.92366 51.2884 6.49062 48.7152 5.1178 46.2317 5.23722 43.1913 6.80062 40.8231L13.5173 29.1981 9.08687 26.6148 19.8981 23.7215 22.7915 34.5327 18.0833 31.8267 11.3408 43.5162C10.7654 44.2689 10.6677 45.2832 11.089 46.1319Z" fill="#0B5F85" transform="matrix(1 0 0 1.01613 449 386)"/><path d="M20.2275 19.4654 25.6331 9.37104C27.0511 6.81994 29.7475 5.24514 32.6662 5.26354 35.504 5.32174 38.0756 6.94826 39.3442 9.48729L46.0608 21.1123 50.4912 18.529 47.5979 29.3725 36.8125 26.4792 41.5142 23.7602 34.7394 12.0642C34.3714 11.1907 33.5411 10.6004 32.5952 10.54 31.5991 10.5893 30.6976 11.145 30.2056 12.0125L24.7935 22.1069Z" fill="#0B5F85" transform="matrix(1 0 0 1.01613 449 386)"/></g></svg>