<svg width="62" height="63" xmlns="http://www.w3.org/2000/svg" xmlns:xlink="http://www.w3.org/1999/xlink" xml:space="preserve" overflow="hidden"><g transform="translate(-743 -386)"><path d="M21.9583 12.2708 40.0417 12.2708C42.5604 12.2708 44.5625 14.2729 44.5625 16.7917L40.6875 16.7917 40.6875 19.375 44.5625 19.375 44.5625 23.25 40.6875 23.25 40.6875 25.8333 44.5625 25.8333 44.5625 29.7083 40.6875 29.7083 40.6875 32.2917 44.5625 32.2917 44.5625 34.875C41.2042 36.2312 37.2 35.2625 33.7771 33.9708 30.8708 32.8729 29.3208 31.5167 26.2854 31.0646 23.7021 30.6771 19.8917 31.1292 17.4375 32.6146L17.4375 16.7917C17.4375 14.2729 19.4396 12.2708 21.9583 12.2708ZM31 5.16667C31.7104 5.16667 32.2917 5.74792 32.2917 6.45833 32.2917 7.16875 31.7104 7.75 31 7.75 30.2896 7.75 29.7083 7.16875 29.7083 6.45833 29.7083 5.74792 30.2896 5.16667 31 5.16667ZM40.0417 8.39583 34.3583 8.39583C34.6812 7.81458 34.875 7.16875 34.875 6.45833 34.875 4.32708 33.1312 2.58333 31 2.58333 28.8687 2.58333 27.125 4.32708 27.125 6.45833 27.125 7.16875 27.3187 7.81458 27.6417 8.39583L21.9583 8.39583C17.3083 8.39583 13.5625 12.1417 13.5625 16.7917L13.5625 42.625C13.5625 47.275 17.3083 51.0208 21.9583 51.0208L27.125 51.0208 27.125 53.6042C27.125 54.3146 27.7062 54.8958 28.4167 54.8958L29.7083 54.8958 29.7083 59.4167 32.2917 59.4167 32.2917 54.8958 33.5833 54.8958C34.2937 54.8958 34.875 54.3146 34.875 53.6042L34.875 51.0208 40.0417 51.0208C44.6917 51.0208 48.4375 47.275 48.4375 42.625L48.4375 16.7917C48.4375 12.1417 44.6917 8.39583 40.0417 8.39583Z" fill="#0B5F85" transform="matrix(1 0 0 1.01613 743 386)"/></g></svg>